<?xml version="1.0" encoding="UTF-8" standalone="no"?>
<svg xmlns="http://www.w3.org/2000/svg" xmlns:xlink="http://www.w3.org/1999/xlink" width="128" height="128">
  <defs>
    <linearGradient id="d">
      <stop offset="0"/>
      <stop offset="1" stop-opacity="0"/>
    </linearGradient>
    <linearGradient id="f">
      <stop offset="0"/>
      <stop offset=".25824177" stop-opacity=".494585"/>
      <stop offset="1" stop-opacity="0"/>
    </linearGradient>
    <linearGradient id="e">
      <stop offset="0" stop-color="#6a6a6a"/>
      <stop offset=".20670569" stop-color="#dfe1e1"/>
      <stop offset=".32530731" stop-color="#b8c2c8"/>
      <stop offset=".5" stop-color="#8d8282"/>
      <stop offset=".78201604" stop-color="#fff"/>
      <stop offset=".9005897" stop-color="#dfd9df"/>
      <stop offset="1" stop-color="#3a3a3a"/>
    </linearGradient>
    <linearGradient id="c">
      <stop offset="0" stop-color="#484848"/>
      <stop offset=".32530731" stop-color="#9b9b9b"/>
      <stop offset=".5" stop-color="#8d8282"/>
      <stop offset=".9005897" stop-color="#dfd9df"/>
      <stop offset="1" stop-color="#3a3a3a"/>
    </linearGradient>
    <linearGradient id="i" x1="48.7832" x2="77.2056" y1="29.4673" y2="113.8847" gradientUnits="userSpaceOnUse">
      <stop offset="0" stop-color="#e2e7ee"/>
      <stop offset=".2012" stop-color="#fff"/>
      <stop offset=".3969" stop-color="#f9f9f9"/>
      <stop offset=".574" stop-color="#e1e6ee"/>
      <stop offset=".7988" stop-color="#fff"/>
    </linearGradient>
    <linearGradient id="a">
      <stop offset="0" stop-color="#0057ae"/>
      <stop offset="1" stop-color="#6193cf"/>
    </linearGradient>
    <linearGradient xlink:href="#a" id="O" x1="11.8232" x2="19.9619" y1="112.9443" y2="112.9443" gradientUnits="userSpaceOnUse"/>
    <linearGradient id="b">
      <stop offset="0" stop-color="#e20800"/>
      <stop offset="1" stop-color="#e85752"/>
    </linearGradient>
    <linearGradient xlink:href="#b" id="P" x1="31.6382" x2="39.7769" y1="111.7891" y2="111.7891" gradientUnits="userSpaceOnUse"/>
    <linearGradient xlink:href="#a" id="Q" x1="51.4556" x2="59.5933" y1="110.6328" y2="110.6328" gradientUnits="userSpaceOnUse"/>
    <linearGradient xlink:href="#b" id="R" x1="71.2725" x2="79.4102" y1="109.4756" y2="109.4756" gradientUnits="userSpaceOnUse"/>
    <linearGradient xlink:href="#a" id="S" x1="91.0869" x2="99.2266" y1="108.3203" y2="108.3203" gradientUnits="userSpaceOnUse"/>
    <linearGradient xlink:href="#b" id="T" x1="110.9062" x2="119.0449" y1="107.1641" y2="107.1641" gradientUnits="userSpaceOnUse"/>
    <linearGradient xlink:href="#a" id="U" x1="2.6265" x2="7.3066" y1="46.8066" y2="46.8066" gradientUnits="userSpaceOnUse"/>
    <linearGradient xlink:href="#b" id="V" x1="3.7495" x2="8.4307" y1="66.0645" y2="66.0645" gradientUnits="userSpaceOnUse"/>
    <linearGradient xlink:href="#a" id="W" x1="4.8735" x2="9.5542" y1="85.3232" y2="85.3232" gradientUnits="userSpaceOnUse"/>
    <linearGradient xlink:href="#b" id="X" x1="5.9961" x2="10.6777" y1="104.5811" y2="104.5811" gradientUnits="userSpaceOnUse"/>
    <linearGradient xlink:href="#a" id="Y" x1="119.1641" x2="123.8428" y1="97.9766" y2="97.9766" gradientUnits="userSpaceOnUse"/>
    <linearGradient xlink:href="#b" id="Z" x1="118.0791" x2="122.7598" y1="79.416" y2="79.416" gradientUnits="userSpaceOnUse"/>
    <linearGradient xlink:href="#a" id="aa" x1="116.875" x2="121.5566" y1="58.7617" y2="58.7617" gradientUnits="userSpaceOnUse"/>
    <linearGradient xlink:href="#b" id="ab" x1="115.79" x2="120.4727" y1="40.2031" y2="40.2031" gradientUnits="userSpaceOnUse"/>
    <linearGradient xlink:href="#b" id="ac" x1="7.1221" x2="15.2598" y1="37.5781" y2="37.5781" gradientUnits="userSpaceOnUse"/>
    <linearGradient xlink:href="#a" id="ad" x1="26.9385" x2="35.0776" y1="36.4219" y2="36.4219" gradientUnits="userSpaceOnUse"/>
    <linearGradient xlink:href="#b" id="ae" x1="46.7549" x2="54.8931" y1="35.2656" y2="35.2656" gradientUnits="userSpaceOnUse"/>
    <linearGradient xlink:href="#a" id="af" x1="66.5732" x2="74.7109" y1="34.1089" y2="34.1089" gradientUnits="userSpaceOnUse"/>
    <linearGradient xlink:href="#b" id="ag" x1="86.3887" x2="94.5273" y1="32.9536" y2="32.9536" gradientUnits="userSpaceOnUse"/>
    <linearGradient xlink:href="#a" id="ah" x1="106.2031" x2="114.3428" y1="31.7974" y2="31.7974" gradientUnits="userSpaceOnUse"/>
    <linearGradient xlink:href="#c" id="an" x1="190.03462" x2="207.94772" y1="90.22673" y2="90.22673" gradientTransform="matrix(.67566 0 0 .31434 -128.6622 76.72348)" gradientUnits="userSpaceOnUse"/>
    <linearGradient xlink:href="#c" id="ao" x1="190.03462" x2="207.94772" y1="90.22673" y2="90.22673" gradientTransform="matrix(.61755 0 0 .28731 -117.0087 7.576418)" gradientUnits="userSpaceOnUse"/>
    <linearGradient xlink:href="#d" id="ap" x1="64.11583846" x2="11.84007742" y1="157.36141349" y2="105.08563024" gradientUnits="userSpaceOnUse"/>
    <linearGradient xlink:href="#e" id="aq" x1="-.75176189" x2="12.50875074" y1="76.67889919" y2="76.67889919" gradientUnits="userSpaceOnUse"/>
    <linearGradient xlink:href="#d" id="ar" x1="8.72922037" x2="6.30097519" y1="25.01622683" y2="15.95388335" gradientUnits="userSpaceOnUse"/>
    <linearGradient xlink:href="#d" id="as" x1="5.71821249" x2="5.6884174" y1="8.77297054" y2="11.83586313" gradientUnits="userSpaceOnUse"/>
    <linearGradient xlink:href="#d" id="at" x1="-.75161569" x2="-.75161569" y1="18.15967029" y2="18.50856647" gradientUnits="userSpaceOnUse"/>
    <linearGradient xlink:href="#d" id="au" x1="97.41718735" x2="12.50889565" y1="103.90322862" y2="76.6788886" gradientUnits="userSpaceOnUse"/>
    <linearGradient xlink:href="#d" id="av" x1="5.72695822" x2="5.69947944" y1="138.93854661" y2="134.1306401" gradientUnits="userSpaceOnUse"/>
    <linearGradient xlink:href="#d" id="aw" x1="-71.804848" x2="-56.400097" y1="128.92874" y2="224.42052" gradientTransform="matrix(1.09118 0 0 .859 43.51075 -106.3214)" gradientUnits="userSpaceOnUse"/>
    <linearGradient id="ax" x1="24.41975545" x2="29.32014747" y1="-10.44214558" y2="-10.44214558" gradientUnits="userSpaceOnUse">
      <stop offset="0" stop-color="#e2dcdc"/>
      <stop offset=".39074388" stop-color="#fff"/>
      <stop offset=".82692307" stop-color="#dfd9df"/>
      <stop offset="1" stop-color="#c3c3c3"/>
    </linearGradient>
    <linearGradient id="ay" x1="-52.71875" x2="-49.3125" y1="182.0625" y2="182.0625" gradientTransform="matrix(.5775 1.44816 -1.04525 .60347 203.6333 164.5422)" gradientUnits="userSpaceOnUse">
      <stop offset="0" stop-color="#323232"/>
      <stop offset=".07692308" stop-color="#9dabc6"/>
      <stop offset=".5" stop-color="#d1d5d9"/>
      <stop offset=".78201604" stop-color="#fff"/>
      <stop offset=".9005897" stop-color="#dfd9df"/>
      <stop offset="1" stop-color="#3a3a3a"/>
    </linearGradient>
    <linearGradient xlink:href="#d" id="az" x1="-52.533428" x2="-52.218658" y1="212.26097" y2="210.21022" gradientTransform="rotate(60 -22.7653636 250.22124722) scale(1.20695)" gradientUnits="userSpaceOnUse"/>
    <linearGradient xlink:href="#d" id="aB" x1="-151.483621" x2="-151.779501" y1="290.678268" y2="290.847638" gradientUnits="userSpaceOnUse"/>
    <linearGradient xlink:href="#e" id="aC" x1="190.03462" x2="208.77219" y1="90.22673" y2="90.22673" gradientTransform="matrix(.91272 0 0 .42464 -3.966562 175.0292)" gradientUnits="userSpaceOnUse"/>
    <linearGradient xlink:href="#e" id="aD" x1="-161.94588" x2="-115.94351" y1="164.39458" y2="160.49312" gradientTransform="matrix(.19246 .3276 .33335 -.18914 -161.2687 357.7563)" gradientUnits="userSpaceOnUse"/>
    <linearGradient xlink:href="#f" id="aE" x1="-135.752561" x2="-134.479111" y1="275.854727" y2="277.229727" gradientUnits="userSpaceOnUse"/>
    <linearGradient xlink:href="#f" id="aF" x1="-128.98389" x2="-129.63054" y1="289.60529" y2="280.78455" gradientTransform="matrix(.5 -.86603 -.86603 -.5 175.2813 305.9918)" gradientUnits="userSpaceOnUse"/>
    <linearGradient id="aG" x1="-162.56029" x2="-118.89805" y1="167.36592" y2="161.92447" gradientTransform="matrix(.19684 -.2009 -.19965 -.20159 160.7019 97.87814)" gradientUnits="userSpaceOnUse">
      <stop offset="0" stop-color="#6a6a6a"/>
      <stop offset=".09826992" stop-color="#c7caca"/>
      <stop offset=".32530731" stop-color="#bdc1c4"/>
      <stop offset=".5" stop-color="#aea6a6"/>
      <stop offset=".71281326" stop-color="#fff"/>
      <stop offset=".9005897" stop-color="#dfd9df"/>
      <stop offset="1" stop-color="#3a3a3a"/>
    </linearGradient>
    <linearGradient xlink:href="#f" id="aH" x1="-203.8418" x2="-120.47014" y1="321.43585" y2="273.30142" gradientTransform="matrix(-.71555 -.1897 -.1897 .71555 58.55724 -132.5042)" gradientUnits="userSpaceOnUse"/>
    <linearGradient xlink:href="#f" id="aI" x1="-135.90878" x2="-134.63533" y1="273.1312" y2="274.5062" gradientTransform="matrix(-.1935 -.71454 .71454 -.1935 -124.2376 51.21838)" gradientUnits="userSpaceOnUse"/>
    <linearGradient xlink:href="#f" id="aJ" x1="-119.93997" x2="-123.91203" y1="274.45004" y2="276.74332" gradientTransform="matrix(-.71555 -.1897 -.1897 .71555 58.66831 -132.5992)" gradientUnits="userSpaceOnUse"/>
    <linearGradient xlink:href="#f" id="aK" x1="-119.88942" x2="-133.02272" y1="290.39322" y2="277.25986" gradientTransform="matrix(-.71555 -.1897 -.1897 .71555 58.66463 -132.5783)" gradientUnits="userSpaceOnUse"/>
    <linearGradient id="aL" x1="-113.99815" x2="-102.01393" y1="261.99951" y2="265.21066" gradientTransform="matrix(-.52206 .52484 .52484 .52206 -103.788 -3.491973)" gradientUnits="userSpaceOnUse">
      <stop offset="0" stop-color="#fafafa"/>
      <stop offset="1" stop-color="#fafafa" stop-opacity="0"/>
    </linearGradient>
    <linearGradient id="g">
      <stop offset="0" stop-color="#ddd"/>
      <stop offset=".2012" stop-color="#bbb"/>
      <stop offset=".574" stop-color="#bbb"/>
      <stop offset=".7988" stop-color="#bbb"/>
    </linearGradient>
    <linearGradient xlink:href="#g" id="j" x1="380.37311" x2="428.37311" y1="144.9357" y2="205.9357" gradientUnits="userSpaceOnUse"/>
    <linearGradient xlink:href="#g" id="k" x1="383.41211" x2="431.41211" y1="142.5446" y2="203.5446" gradientUnits="userSpaceOnUse"/>
    <linearGradient xlink:href="#g" id="l" x1="385.06351" x2="433.06351" y1="141.2448" y2="202.2448" gradientUnits="userSpaceOnUse"/>
    <linearGradient xlink:href="#g" id="m" x1="388.18359" x2="436.18359" y1="138.7897" y2="199.7897" gradientUnits="userSpaceOnUse"/>
    <linearGradient xlink:href="#g" id="n" x1="391.3179" x2="439.3179" y1="136.32339" y2="197.32339" gradientUnits="userSpaceOnUse"/>
    <linearGradient xlink:href="#g" id="o" x1="394.13721" x2="442.13721" y1="134.10519" y2="195.10519" gradientUnits="userSpaceOnUse"/>
    <linearGradient xlink:href="#g" id="p" x1="398.06741" x2="446.06741" y1="131.01241" y2="192.01241" gradientUnits="userSpaceOnUse"/>
    <linearGradient xlink:href="#g" id="q" x1="400.12549" x2="448.12549" y1="129.39281" y2="190.39281" gradientUnits="userSpaceOnUse"/>
    <linearGradient xlink:href="#g" id="r" x1="402.63721" x2="450.63721" y1="127.4167" y2="188.4167" gradientUnits="userSpaceOnUse"/>
    <linearGradient xlink:href="#g" id="s" x1="405.625" x2="453.625" y1="125.0656" y2="186.0656" gradientUnits="userSpaceOnUse"/>
    <linearGradient xlink:href="#g" id="t" x1="407.93411" x2="455.93411" y1="123.2482" y2="184.2482" gradientUnits="userSpaceOnUse"/>
    <linearGradient xlink:href="#g" id="u" x1="376.35159" x2="424.35159" y1="148.1008" y2="209.1008" gradientUnits="userSpaceOnUse"/>
    <linearGradient xlink:href="#g" id="v" x1="379.09131" x2="427.09131" y1="145.9445" y2="206.9445" gradientUnits="userSpaceOnUse"/>
    <linearGradient xlink:href="#g" id="w" x1="382.01611" x2="430.01611" y1="143.6433" y2="204.6433" gradientUnits="userSpaceOnUse"/>
    <linearGradient xlink:href="#g" id="x" x1="384.7569" x2="432.7569" y1="141.4865" y2="202.4865" gradientUnits="userSpaceOnUse"/>
    <linearGradient xlink:href="#g" id="y" x1="388.56589" x2="436.56589" y1="138.489" y2="199.489" gradientUnits="userSpaceOnUse"/>
    <linearGradient xlink:href="#g" id="z" x1="391.1734" x2="439.1734" y1="136.4377" y2="197.4377" gradientUnits="userSpaceOnUse"/>
    <linearGradient xlink:href="#g" id="A" x1="393.9136" x2="441.9136" y1="134.28101" y2="195.28101" gradientUnits="userSpaceOnUse"/>
    <linearGradient xlink:href="#g" id="B" x1="398.31009" x2="446.31009" y1="130.8215" y2="191.8215" gradientUnits="userSpaceOnUse"/>
    <linearGradient xlink:href="#g" id="C" x1="400.52789" x2="448.52789" y1="129.0764" y2="190.0764" gradientUnits="userSpaceOnUse"/>
    <linearGradient xlink:href="#g" id="D" x1="403.68069" x2="451.68069" y1="126.5954" y2="187.5954" gradientUnits="userSpaceOnUse"/>
    <linearGradient xlink:href="#g" id="E" x1="406.19" x2="454.19" y1="124.6208" y2="185.6208" gradientUnits="userSpaceOnUse"/>
    <linearGradient xlink:href="#g" id="F" x1="408.4707" x2="456.4707" y1="122.8264" y2="183.8264" gradientUnits="userSpaceOnUse"/>
    <linearGradient xlink:href="#g" id="G" x1="410.56351" x2="458.56351" y1="121.1794" y2="182.1794" gradientUnits="userSpaceOnUse"/>
    <linearGradient xlink:href="#g" id="H" x1="412.815" x2="460.815" y1="119.4079" y2="180.4079" gradientUnits="userSpaceOnUse"/>
    <linearGradient xlink:href="#g" id="I" x1="414.78131" x2="462.78131" y1="117.8605" y2="178.8605" gradientUnits="userSpaceOnUse"/>
    <linearGradient xlink:href="#g" id="J" x1="373.8374" x2="421.8374" y1="150.07829" y2="211.07829" gradientUnits="userSpaceOnUse"/>
    <linearGradient xlink:href="#g" id="K" x1="377.19919" x2="425.19919" y1="147.4328" y2="208.4328" gradientUnits="userSpaceOnUse"/>
    <linearGradient xlink:href="#g" id="L" x1="379.45221" x2="427.45221" y1="145.6604" y2="206.6604" gradientUnits="userSpaceOnUse"/>
    <linearGradient xlink:href="#g" id="M" x1="381.67679" x2="429.67679" y1="143.9099" y2="204.9099" gradientUnits="userSpaceOnUse"/>
    <linearGradient xlink:href="#g" id="N" x1="383.98199" x2="431.98199" y1="142.09641" y2="203.09641" gradientUnits="userSpaceOnUse"/>
    <linearGradient id="h">
      <stop offset="0" stop-color="#e8b7d7"/>
      <stop offset=".3491" stop-color="#b14f9a"/>
      <stop offset=".6213" stop-color="#e8b7d7"/>
      <stop offset="1" stop-color="#c173b0"/>
    </linearGradient>
    <linearGradient xlink:href="#h" id="al" x1="439.5972" x2="459.53961" y1="136.1154" y2="136.1154" gradientUnits="userSpaceOnUse"/>
    <linearGradient xlink:href="#h" id="am" x1="424.89209" x2="456.65579" y1="136.1154" y2="136.1154" gradientUnits="userSpaceOnUse"/>
    <radialGradient id="aj" cx="215.1445" cy="-225.897" r="588.0472" gradientTransform="matrix(1.0225 -.0721 -.0721 -1.0225 -409.5518 -213.3734)" gradientUnits="userSpaceOnUse">
      <stop offset="0" stop-color="#a4c0e4"/>
      <stop offset="1" stop-color="#6193cf"/>
    </radialGradient>
    <radialGradient id="ak" cx="3331.0352" cy="1715.6982" r="111.896" gradientTransform="matrix(.1992 .0411 -.0359 .2003 -492.5484 -420.882)" gradientUnits="userSpaceOnUse">
      <stop offset="0" stop-color="#a4c0e4"/>
      <stop offset=".7574" stop-color="#3385e8"/>
    </radialGradient>
    <radialGradient id="aA" cx="-151.692031" cy="290.718768" r=".632813" fx="-151.583501" fy="291.123738" gradientUnits="userSpaceOnUse">
      <stop offset="0" stop-color="#fff"/>
      <stop offset=".3598901" stop-color="#b9abb9"/>
      <stop offset=".71978021" stop-color="#dfd9df"/>
      <stop offset="1" stop-color="#3a3a3a"/>
    </radialGradient>
    <radialGradient xlink:href="#d" id="aM" cx="34.447388" cy="87.85659" r="57.773968" fx="69.979736" gradientTransform="matrix(1 0 0 .39437 .520866 52.29887)" gradientUnits="userSpaceOnUse"/>
    <radialGradient id="ai" cx="834.90479" cy="-200.41679" r="20.977699" gradientTransform="matrix(1.0225 -.0721 -.0721 -1.0225 -411.7563 -22.6411)" gradientUnits="userSpaceOnUse">
      <stop offset=".0056" stop-color="#eee"/>
      <stop offset=".2428" stop-color="#fbfbfb"/>
      <stop offset=".4663" stop-color="#fff"/>
      <stop offset=".5989" stop-color="#fafafa"/>
      <stop offset=".7515" stop-color="#ecedee"/>
      <stop offset="1" stop-color="#f3f4f5"/>
    </radialGradient>
  </defs>
  <g transform="translate(0 -.269882)">
    <g transform="translate(.754532 -9.117629)">
      <path d="M118.511 27.208c-.168.008-3.742.217-115.44 6.732-2.113.123-3.768 1.877-3.768 3.993l.006.223c0 .011 4.528 77.648 4.528 77.648.064 1.066.538 2.043 1.333 2.752.788.703 1.844 1.069 2.897 1.007l115.356-6.729c2.201-.129 3.887-2.024 3.758-4.227l-4.528-77.636c-.062-1.07-.537-2.05-1.337-2.759-.771-.685-1.768-1.042-2.805-1.004z" opacity=".1"/>
      <path d="M118.544 28.208c-.042.001-1.256.072-115.415 6.73-1.592.093-2.826 1.419-2.826 2.995 0 .058.002.115.005.173-.001-.027-.001-.015 4.528 77.64.048.799.403 1.532 1 2.064.592.527 1.383.802 2.172.755l115.357-6.729c1.65-.097 2.915-1.519 2.818-3.17l-4.528-77.636c-.047-.803-.402-1.537-1.002-2.068-.582-.518-1.33-.784-2.109-.754z" opacity=".15"/>
      <path d="M118.546 29.208c-.001 0-115.359 6.729-115.359 6.729-1.101.064-1.944 1.012-1.881 2.113l4.528 77.638c.032.533.269 1.021.667 1.377.395.352.922.534 1.447.503l115.358-6.729c1.101-.064 1.943-1.012 1.879-2.113l-4.528-77.637c-.031-.535-.268-1.024-.667-1.378-.398-.355-.911-.533-1.444-.503z" opacity=".2"/>
      <path d="M118.603 30.207 3.245 36.935c-.551.032-.972.505-.94 1.057l4.528 77.637c.016.266.136.513.334.689s.458.267.723.251l115.358-6.729c.552-.032.972-.505.939-1.057l-4.528-77.637c-.016-.265-.135-.513-.333-.689s-.458-.266-.723-.25z" opacity=".25"/>
      <path fill="#fff" d="m6.8917929 115.6281552-4.64261383-79.634388 117.3541582-6.8416428 4.64261383 79.634388z"/>
      <path fill="url(#i)" d="M3.343 36.984c.117 2.014 4.406 75.526 4.524 77.541 2.04-.121 113.222-6.607 115.261-6.725-.117-2.016-4.406-75.528-4.524-77.542-2.04.119-113.222 6.607-115.261 6.726z"/>
      <g transform="translate(-359.1431 -81.50215)">
        <path fill="url(#j)" d="M392.967 159.867c.291-.444.697-.681 1.215-.711.444-.027.819.112 1.127.418.305.307.474.706.502 1.201.046.773-.223 1.492-.807 2.167-.583.671-1.25 1.025-2.003 1.069-.543.034-1-.122-1.376-.458-.373-.343-.576-.786-.608-1.335-.034-.598.136-1.124.515-1.582.377-.451.856-.711 1.435-.769zm-.215.347c-.361.109-.637.322-.833.639-.19.314-.276.694-.252 1.133.03.492.196.893.501 1.193.306.303.682.443 1.124.418.533-.031.986-.313 1.365-.838.375-.527.544-1.12.507-1.78-.023-.384-.143-.705-.359-.953-.215-.249-.473-.364-.769-.352-.301.02-.554.156-.758.416-.207.256-.301.55-.281.889.014.238.083.453.208.645-.228-.027-.382-.076-.461-.154-.078-.075-.125-.215-.136-.415-.016-.264.031-.544.144-.841z"/>
        <path fill="url(#k)" d="M397.812 162.586c-.387.6-.613 1.167-.683 1.711-.256-.14-.386-.286-.396-.438-.018-.314.275-.836.877-1.557-.16-.238-.314-.525-.464-.876-.149-.346-.229-.599-.239-.757-.009-.168.188-.3.594-.392-.012.046-.017.086-.015.123.023.373.209.856.562 1.453.495-.643.732-1.147.713-1.509l-.006-.04c.023-.002.08-.011.169-.024l.036-.002c.222-.013.338.042.345.159.016.297-.345.854-1.085 1.677.331.457.669.676 1.017.654.615-.032 1.236-.71 1.863-2.019l.265.132c-.408.843-.792 1.457-1.153 1.849-.362.39-.737.598-1.127.62-.462.029-.887-.227-1.273-.764z"/>
        <path fill="url(#l)" d="M401.95 163.359c-.119-.545-.307-1.078-.563-1.602-.254-.526-.52-.919-.796-1.189.146-.14.295-.207.457-.219.136-.007.253.047.352.164.099.118.229.362.388.729.249.575.439 1.099.574 1.57.628-1.136.946-2.114.957-2.936.361.029.547.141.557.325.012.195-.126.612-.412 1.244-.287.63-.603 1.211-.944 1.743-.396.612-.796 1.102-1.199 1.464-.404.367-.758.555-1.062.572-.275.019-.42-.091-.433-.318-.006-.097.013-.209.054-.34.117.063.257.091.422.081.599-.034 1.149-.466 1.648-1.288z"/>
        <path fill="url(#m)" d="M406.677 161.247c-.174.424-.439.799-.797 1.131-.36.33-.685.507-.982.521-.225.014-.409-.051-.561-.193-.148-.144-.232-.337-.245-.577-.034-.565.151-1.103.552-1.606.401-.504.856-.772 1.363-.804.263-.015.549.042.86.176.029-.202.083-.329.156-.384.078-.057.269-.109.586-.16-.141.328-.252 1.11-.326 2.328l-.021.315c.846-.579 1.496-1.161 1.938-1.738l.268.146c-.417.613-1.15 1.3-2.201 2.06-.001.078-.002.14-.002.179-.001.515-.033.896-.096 1.145-.064.249-.19.49-.378.72-.374.45-.845.692-1.413.727-.303.017-.556-.043-.754-.175-.199-.133-.305-.314-.318-.542-.013-.224.059-.424.213-.601.153-.181.449-.404.888-.67.292-.175.7-.436 1.23-.78zm.112-.809c-.281-.268-.582-.391-.902-.373-.302.021-.575.225-.821.623-.246.396-.356.807-.331 1.236.017.305.137.448.36.435.218-.011.495-.208.833-.59.338-.385.623-.826.861-1.331zm-.158 2.437c-.115.078-.348.229-.695.452-.682.44-1.014.812-.996 1.117.009.136.072.243.191.328.12.08.268.114.444.104.78-.043 1.131-.713 1.056-2.001z"/>
        <path fill="url(#n)" d="M409.312 161.664c.034.599.304.882.814.855.439-.026.913-.267 1.418-.716.508-.45.954-1.029 1.341-1.739l.268.128c-.359.775-.844 1.424-1.456 1.955-.614.527-1.207.811-1.783.843-.367.02-.666-.08-.894-.306-.229-.225-.355-.544-.376-.955-.036-.595.129-1.114.492-1.56.362-.444.818-.685 1.366-.715.265-.015.48.037.646.164.166.12.255.295.269.521.021.364-.179.703-.605 1.01-.428.31-.928.481-1.5.515zm.006-.298c.426-.045.788-.192 1.081-.431.292-.24.432-.51.415-.798-.015-.262-.138-.388-.374-.375-.279.017-.528.182-.748.493-.214.315-.342.683-.374 1.111z"/>
        <path fill="url(#o)" d="M413.402 161.598c.637-1.575 1.245-2.382 1.825-2.415.453-.028.705.409.758 1.308l.028.369c.026.431.063.725.118.888.053.165.139.238.256.233.177-.011.369-.163.575-.454.208-.294.541-.877.994-1.749l.268.133c-.4.877-.768 1.529-1.101 1.963-.333.429-.639.655-.921.67-.26.015-.451-.1-.571-.342-.119-.247-.196-.681-.234-1.299l-.015-.265c-.02-.334-.054-.568-.107-.704-.05-.133-.128-.192-.234-.188-.271.014-.674.579-1.211 1.692-.13.271-.218.447-.255.522-.142.286-.209.487-.203.609.004.05.019.094.047.141-.115.055-.215.085-.296.089-.208.015-.319-.095-.332-.324-.004-.067.004-.362.028-.89l.028-.668c.014-.285.017-.507.007-.657-.012-.221-.072-.384-.176-.504.041-.019.111-.049.211-.087.122-.055.224-.082.298-.087.161-.01.244.102.258.333.008.124.005.336-.009.634-.001.069-.003.128-.007.19z"/>
        <path fill="url(#p)" d="M423.134 159.621c-.417.837-.846 1.498-1.294 1.981-.445.485-.856.738-1.232.762-.23.015-.419-.051-.569-.191-.147-.142-.23-.333-.243-.576-.005-.091.006-.241.035-.441l.047-.343c.072-.493.101-.838.092-1.036-.007-.114-.046-.211-.121-.278.261-.076.427-.118.493-.121.152-.009.233.092.245.306.01.158-.007.383-.047.686l-.085.605c-.039.289-.06.478-.053.562.015.256.128.376.344.362.255-.015.585-.249.985-.705.4-.455.78-1.026 1.142-1.708zm-2.824-1.383.042.001c.137-.015.331-.098.578-.244.249-.15.442-.295.58-.441-.074.288-.22.536-.436.738-.329.312-.557.468-.679.478-.082.004-.125-.045-.132-.144-.007-.145.008-.273.047-.388z"/>
        <path fill="url(#q)" d="M426.72 159.414c-.448.858-.934 1.547-1.459 2.053-.529.512-1.028.783-1.505.811-.395.021-.724-.096-.984-.348-.262-.258-.405-.6-.431-1.035-.034-.568.149-1.075.548-1.521.399-.449.883-.689 1.454-.723.233-.017.425.021.58.097.15.084.233.191.241.328.015.225-.169.404-.546.541.018-.052.025-.099.021-.146-.019-.328-.204-.486-.555-.465-.304.017-.575.203-.81.558-.238.355-.344.739-.32 1.146.019.33.12.593.304.79.18.198.411.291.685.274.752-.047 1.591-.879 2.509-2.501z"/>
        <path fill="url(#r)" d="M429.175 159.52c.009.048.014.092.018.132.035.59-.136 1.116-.514 1.58-.374.466-.833.71-1.37.743-.412.024-.754-.089-1.028-.335-.272-.25-.425-.582-.448-1.003-.026-.478.113-.9.432-1.27.312-.369.698-.565 1.152-.592.068-.006.144 0 .222.015-.057-.087-.087-.167-.09-.23-.004-.098.023-.194.085-.289.504.013.932.243 1.291.692.354.215.714.31 1.082.286.239-.014.493-.108.762-.289l.166.254c-.311.247-.636.381-.979.4-.226.015-.487-.018-.781-.094zm-.713-.221c-.173-.045-.335-.113-.486-.224-.104-.014-.19-.021-.262-.017-.347.019-.645.195-.897.522s-.365.695-.34 1.097c.018.291.109.527.283.704.176.179.39.26.645.245.348-.021.638-.212.863-.575.229-.363.332-.788.303-1.271-.011-.167-.045-.329-.109-.481z"/>
        <path fill="url(#s)" d="M431.187 160.562c.64-1.582 1.247-2.386 1.827-2.42.452-.023.707.413.758 1.312l.027.369c.027.429.065.725.118.887.055.159.14.241.256.231.176-.009.368-.159.575-.453.209-.293.541-.874.995-1.749l.266.137c-.397.874-.765 1.525-1.099 1.961-.332.429-.639.653-.921.671-.262.014-.451-.101-.572-.345-.119-.245-.196-.678-.233-1.297l-.016-.264c-.02-.337-.054-.57-.107-.703-.05-.135-.128-.197-.235-.191-.268.015-.675.579-1.21 1.691-.131.271-.218.448-.257.526-.139.285-.209.484-.2.608.004.048.019.094.046.139-.116.056-.213.087-.296.093-.21.012-.319-.096-.332-.327-.004-.066.005-.361.028-.887l.027-.672c.017-.284.019-.504.011-.661-.016-.216-.074-.384-.18-.5.043-.016.113-.047.211-.086.123-.054.226-.083.301-.088.158-.009.244.103.258.334.006.123.003.334-.009.636-.002.066-.003.127-.007.187z"/>
        <path fill="url(#t)" d="M437.069 160.246c.078.15.121.297.13.437.02.314-.098.595-.345.841-.25.249-.55.383-.903.404-.206.012-.387-.032-.537-.131-.151-.099-.23-.223-.238-.37-.012-.159.079-.329.269-.501.192-.177.516-.392.972-.643l-.27-.383c-.326-.463-.497-.828-.513-1.098-.024-.388.183-.715.623-.979.283.091.433.215.44.38.014.227-.15.458-.494.688l.388.626.303.479c.378-.252.66-.471.848-.652.192-.176.427-.447.707-.813l.256.138c-.409.612-.953 1.136-1.636 1.577zm-.507.304c-.583.359-.871.628-.86.806.008.17.136.245.379.229.183-.011.324-.078.429-.206.106-.129.154-.288.143-.482-.008-.114-.038-.23-.091-.347z"/>
        <path fill="url(#u)" d="m393.946 166.74-.565 4.238c.219-.042.389-.068.506-.073.27-.018.452.014.546.09.095.079.149.239.165.487-.113-.062-.262-.093-.444-.08-.206.013-.448.043-.735.094l-.441.083c-.135.025-.321.064-.56.117-.077.012-.153.024-.229.026-.224.015-.368-.167-.427-.552.11.046.217.065.325.06.221-.013.442-.052.666-.119l.477-3.452c-.328.189-.59.284-.786.296-.295.019-.453-.165-.476-.545l-.004-.087c.129.1.274.148.435.139.268-.017.712-.216 1.333-.604.026-.016.097-.054.214-.118z"/>
        <path fill="url(#v)" d="m398.187 166.493-.564 4.238c.22-.043.388-.068.508-.075.27-.017.45.017.544.093.095.078.15.24.165.487-.114-.064-.262-.091-.446-.081-.203.014-.447.045-.734.096l-.44.082c-.137.024-.324.063-.561.114-.077.017-.154.025-.228.03-.225.013-.369-.172-.428-.554.11.048.216.067.325.061.222-.013.443-.054.665-.119l.477-3.453c-.326.188-.591.285-.786.297-.293.016-.452-.164-.475-.545l-.005-.089c.129.103.276.148.435.141.268-.017.713-.217 1.334-.606.026-.014.098-.055.214-.117z"/>
        <path fill="url(#w)" d="M401.304 171.1c-.401.022-.73-.11-.986-.397-.256-.289-.399-.685-.428-1.195-.049-.838.144-1.578.583-2.221.438-.644.979-.983 1.626-1.021.422-.025.762.105 1.017.393.257.284.401.694.432 1.225.048.84-.149 1.573-.592 2.208-.442.633-.993.971-1.652 1.008zm.232-.353c.396-.025.731-.308 1.002-.842.272-.54.389-1.154.348-1.833-.06-1.002-.394-1.483-1.006-1.446-.397.023-.727.305-.994.836-.266.534-.379 1.146-.339 1.838.058.997.387 1.48.989 1.447z"/>
        <path fill="url(#x)" d="M405.547 170.854c-.402.021-.729-.109-.986-.397-.255-.29-.398-.688-.428-1.198-.049-.836.145-1.577.583-2.22s.98-.985 1.625-1.021c.421-.026.762.104 1.019.392.255.289.402.695.43 1.226.049.836-.147 1.574-.591 2.207-.444.635-.994.971-1.652 1.011zm.231-.355c.396-.023.73-.307 1.002-.844.272-.54.389-1.151.348-1.83-.057-1.003-.392-1.482-1.007-1.446-.395.025-.726.304-.992.835-.266.536-.379 1.148-.339 1.838.058.998.388 1.48.988 1.447z"/>
        <path fill="url(#y)" d="M410.664 169.364c.018.334.125.588.319.769.194.18.456.26.777.242.288-.018.533-.117.734-.304.202-.184.294-.392.281-.622-.014-.249-.266-.576-.757-.982l-.355-.295c-.454-.376-.692-.733-.713-1.068-.024-.395.113-.727.405-.999.292-.271.676-.42 1.148-.449.252-.015.458.013.619.083.16.066.243.159.25.284.006.12-.039.262-.141.431-.198-.335-.498-.487-.897-.468-.25.017-.457.106-.617.272-.161.165-.236.358-.221.585.008.151.042.268.103.342.06.079.245.241.553.493l.291.236c.528.441.805.846.828 1.217.027.437-.125.803-.451 1.111-.329.306-.752.475-1.276.506-.349.017-.644-.046-.88-.197-.239-.151-.366-.351-.38-.6-.011-.169.117-.364.38-.587z"/>
        <path fill="url(#z)" d="M414.783 168.915c.033.6.305.882.813.853.441-.024.915-.264 1.42-.712.506-.452.952-1.033 1.338-1.74l.269.13c-.357.772-.844 1.423-1.455 1.951-.612.527-1.208.81-1.782.845-.369.023-.666-.08-.894-.308-.228-.225-.354-.542-.378-.955-.035-.595.129-1.11.494-1.558.362-.444.816-.682 1.364-.715.265-.015.479.04.645.162.167.124.257.298.27.521.021.366-.18.702-.604 1.01-.427.312-.928.481-1.5.516zm.007-.298c.426-.046.789-.19 1.081-.431.294-.241.432-.509.417-.8-.016-.261-.14-.388-.374-.373-.281.018-.528.181-.749.493-.218.314-.343.685-.375 1.111z"/>
        <path fill="url(#A)" d="M420.442 167.985c-.234.558-.529 1.039-.892 1.442-.361.4-.686.61-.972.626-.217.014-.396-.072-.537-.258-.143-.188-.223-.442-.241-.761-.038-.642.124-1.218.482-1.729.361-.509.796-.778 1.306-.81.309-.018.649.062 1.023.229.041-.191.254-.3.632-.322.025-.003.064-.003.121-.003-.107.185-.182.432-.224.746l-.038.266c-.042.293-.053.634-.03 1.023.026.446.143.666.353.651.22-.01.512-.213.875-.606.361-.39.711-.884 1.05-1.476l.248.152c-.339.698-.739 1.285-1.199 1.766-.461.479-.867.731-1.217.751-.443.023-.685-.331-.728-1.068-.004-.153-.009-.36-.012-.619zm.1-.744c-.447-.257-.812-.375-1.097-.357-.31.019-.566.222-.771.609-.203.393-.29.845-.259 1.36.024.415.172.613.441.6.292-.016.816-.696 1.57-2.031.01-.016.048-.079.116-.181z"/>
        <path fill="url(#B)" d="M428.17 167.148c.011.05.016.093.017.132.036.592-.136 1.117-.508 1.579-.376.467-.832.713-1.374.743-.411.025-.753-.086-1.025-.334-.275-.248-.425-.582-.449-1.001-.025-.477.115-.901.43-1.271.313-.37.7-.567 1.154-.593.07-.004.142.001.22.015-.054-.088-.087-.166-.089-.229-.008-.098.021-.193.084-.29.503.012.933.243 1.293.692.354.215.716.309 1.08.288.24-.015.492-.11.762-.29l.171.253c-.315.247-.642.38-.979.4-.23.014-.489-.019-.787-.094zm-.711-.219c-.17-.043-.335-.116-.481-.223-.11-.014-.195-.021-.264-.015-.349.016-.648.193-.897.521-.252.328-.364.694-.343 1.097.017.291.112.526.287.703.173.18.387.261.644.244.347-.019.633-.212.862-.575.229-.362.332-.787.305-1.269-.013-.171-.049-.331-.113-.483z"/>
        <path fill="url(#C)" d="m429.543 166.883-.064.005c-.305.019-.566.107-.786.274.036-.264.098-.435.189-.513.092-.075.289-.122.596-.139l.116-.009.071-.51c.099-.694.29-1.205.576-1.528.349-.396.752-.609 1.205-.634.175-.01.326.021.461.095.131.074.199.169.206.284.006.123-.117.267-.372.435-.093-.308-.267-.456-.53-.44-.463.026-.769.554-.91 1.577l-.097.688 1.071-.062c.486-.03.846-.075 1.071-.143-.088.223-.191.36-.313.412-.124.051-.444.089-.968.12l-.917.052-.373 2.665c-.036.259-.051.48-.039.67.005.124.041.229.099.327-.2.078-.354.12-.467.126-.168.01-.256-.08-.267-.271-.011-.148.01-.397.055-.743z"/>
        <path fill="url(#D)" d="M437.917 166.327c-.446.862-.933 1.546-1.461 2.057-.527.511-1.027.78-1.501.81-.396.022-.725-.094-.987-.35-.259-.255-.404-.6-.43-1.033-.032-.568.15-1.077.551-1.523.396-.447.882-.688 1.452-.721.232-.015.423.019.578.098.152.08.233.191.244.327.013.227-.169.405-.546.54.018-.049.023-.097.021-.143-.02-.332-.204-.49-.557-.467-.304.017-.574.202-.81.559-.238.355-.346.736-.321 1.146.021.327.121.591.304.79.182.197.411.289.685.271.757-.046 1.593-.877 2.511-2.497z"/>
        <path fill="url(#E)" d="M440.373 166.438c.007.048.014.09.015.13.039.593-.135 1.12-.51 1.581-.377.464-.832.712-1.372.742-.411.027-.753-.085-1.029-.334-.271-.247-.422-.583-.446-1.001-.029-.479.113-.899.43-1.271.313-.369.7-.563 1.153-.594.069-.005.146 0 .223.017-.059-.089-.085-.168-.09-.229-.004-.098.023-.196.085-.288.503.013.932.242 1.29.69.353.215.714.31 1.081.287.239-.013.495-.109.763-.29l.166.253c-.311.25-.635.382-.978.401-.228.014-.486-.018-.781-.094zm-.713-.221c-.172-.044-.333-.116-.484-.224-.106-.015-.191-.019-.264-.016-.349.019-.645.193-.896.521-.251.327-.366.694-.343 1.096.018.292.112.528.284.705.174.179.388.261.646.245.346-.021.634-.213.861-.575.232-.363.332-.789.303-1.272-.011-.166-.044-.33-.107-.48z"/>
        <path fill="url(#F)" d="M444.69 165.946c-.38.828-.768 1.483-1.166 1.964-.402.481-.768.733-1.098.754-.238.013-.438-.066-.596-.244-.158-.177-.245-.412-.264-.713-.01-.168.006-.409.05-.717l.429-3.108c-.077.018-.148.027-.207.03-.469.028-.716-.157-.739-.554l-.004-.073c.253.124.534.181.842.161.31-.021.575-.111.797-.277l-.495 3.735c-.044.334-.062.563-.055.688.021.345.157.514.408.497.247-.015.485-.166.718-.457.231-.292.607-.91 1.122-1.843z"/>
        <path fill="url(#G)" d="M447.14 166.042c.011.049.016.09.018.13.035.59-.136 1.118-.512 1.583-.373.463-.832.711-1.371.741-.414.024-.753-.087-1.027-.333-.273-.251-.425-.584-.449-1.001-.025-.478.115-.903.432-1.271.313-.371.698-.568 1.153-.595.068-.006.143-.001.222.014-.056-.088-.087-.163-.091-.228-.005-.097.024-.194.085-.289.502.012.933.242 1.291.694.354.211.714.307 1.081.283.24-.015.492-.111.765-.288l.166.254c-.312.245-.64.376-.978.399-.228.017-.49-.017-.785-.093zm-.712-.221c-.173-.042-.335-.114-.485-.221-.105-.016-.194-.022-.263-.02-.348.021-.645.197-.898.523-.251.332-.363.695-.34 1.098.016.29.111.525.285.701.174.179.389.262.644.248.348-.021.637-.215.865-.577.228-.365.329-.786.3-1.271-.008-.168-.044-.326-.108-.481z"/>
        <path fill="url(#H)" d="M448.944 168.183c-.135.074-.245.114-.329.118-.21.015-.321-.073-.331-.258-.006-.094.018-.331.071-.709l.108-.773c.069-.459.092-.803.081-1.02-.005-.119-.046-.219-.119-.292.213-.089.386-.136.519-.143.146-.007.222.078.23.262.009.112-.027.413-.1.896l-.121.907c.341-.775.695-1.382 1.065-1.821.365-.439.71-.67 1.028-.688.113-.005.214.02.298.08.086.058.134.137.137.229.009.142-.137.34-.434.597-.088-.158-.203-.232-.347-.224-.258.016-.573.31-.943.889-.229.36-.424.727-.587 1.105-.164.374-.243.642-.233.796z"/>
        <path fill="url(#I)" d="M453.364 166.863c.079.152.122.299.131.438.018.314-.097.594-.346.844-.247.248-.551.38-.901.4-.208.014-.387-.031-.537-.129-.154-.098-.232-.22-.24-.369-.01-.159.081-.328.271-.504.189-.174.513-.387.97-.641l-.269-.382c-.327-.464-.497-.829-.515-1.101-.024-.388.186-.714.623-.979.286.091.431.216.44.378.014.229-.15.46-.492.693l.386.622.305.481c.376-.259.661-.472.848-.652.189-.178.425-.451.707-.815l.254.137c-.405.616-.952 1.141-1.635 1.579zm-.506.311c-.583.355-.869.623-.86.802.009.168.136.245.38.232.178-.011.324-.081.428-.21.106-.127.152-.291.143-.481-.007-.114-.037-.229-.091-.343z"/>
        <path fill="url(#J)" d="M392.516 179.199c.044-.213.055-.485.034-.826-.048-.83-.159-1.627-.334-2.39-.175-.761-.376-1.333-.602-1.705.205-.065.356-.098.449-.102.135-.011.238.047.307.168.071.124.167.418.29.882.192.719.358 1.702.5 2.959.603-1.448 1.094-2.587 1.48-3.409.026-.004.046-.012.059-.013.083-.023.142-.035.173-.038.171-.01.26.067.268.228.004.049.002.104-.004.178-.044.667-.055 1.164-.036 1.477l.011.353.009.212c.045.764.185 1.144.419 1.128.266-.016.522-.309.769-.88.273-.641.384-1.377.336-2.208-.02-.357-.131-.685-.33-.984.146-.043.278-.069.4-.077.187-.012.325.034.408.135.083.102.134.28.149.539.048.842-.143 1.712-.577 2.613-.2.416-.431.761-.695 1.036-.267.277-.502.42-.71.434-.234.016-.405-.106-.517-.362-.11-.256-.183-.7-.222-1.339-.014-.256-.024-.65-.028-1.183-.445.887-.78 1.615-1.007 2.189l-.09.229c-.127.307-.232.497-.314.565-.08.068-.278.131-.595.191z"/>
        <path fill="url(#K)" d="M401.187 176.294c.01.048.015.091.017.13.034.594-.136 1.119-.512 1.583-.374.462-.833.712-1.373.74-.411.026-.752-.087-1.026-.336-.274-.246-.424-.579-.448-.999-.027-.479.114-.901.431-1.27.313-.369.697-.566 1.152-.597.07-.006.144.001.222.018-.055-.089-.087-.167-.09-.23-.005-.095.023-.191.086-.287.501.012.932.241 1.29.694.355.21.716.306 1.081.283.241-.014.493-.108.762-.288l.169.253c-.312.246-.64.38-.979.4-.228.015-.489-.019-.782-.094zm-.712-.223c-.173-.041-.336-.113-.486-.22-.106-.016-.194-.021-.263-.019-.348.022-.646.195-.896.523-.251.329-.366.696-.344 1.096.018.292.112.527.286.705.176.178.39.259.645.242.348-.019.635-.209.864-.573.229-.363.331-.785.303-1.27-.011-.167-.047-.329-.109-.484z"/>
        <path fill="url(#L)" d="M402.99 178.435c-.136.073-.246.114-.332.12-.209.01-.318-.075-.329-.261-.005-.093.017-.33.069-.708l.109-.774c.068-.463.094-.802.082-1.021-.005-.119-.045-.216-.117-.291.208-.085.382-.132.517-.14.143-.01.22.076.232.262.005.111-.028.406-.103.893l-.118.905c.342-.775.696-1.382 1.065-1.821.367-.439.71-.668 1.028-.685.112-.006.214.019.299.079.085.058.131.138.136.229.008.143-.135.343-.433.597-.089-.158-.203-.231-.345-.225-.26.017-.575.312-.944.888-.232.359-.426.728-.589 1.104-.164.378-.24.646-.231.799z"/>
        <path fill="url(#M)" d="M408.903 175.604c-.376.828-.766 1.482-1.166 1.966-.4.48-.764.733-1.096.749-.24.018-.437-.064-.596-.241-.158-.178-.246-.415-.263-.713-.009-.169.009-.408.051-.717l.429-3.107c-.079.016-.149.027-.208.03-.47.027-.716-.158-.738-.555l-.005-.073c.252.124.535.18.844.162.308-.018.575-.111.796-.278l-.496 3.734c-.045.335-.061.564-.055.69.021.345.157.512.411.495.245-.014.484-.166.716-.458.232-.291.606-.906 1.121-1.841z"/>
        <path fill="url(#N)" d="M410.689 176.204c-.287.596-.594 1.072-.922 1.428-.33.356-.631.544-.905.56-.22.016-.398-.071-.54-.257-.14-.183-.219-.436-.238-.756-.037-.647.122-1.226.479-1.735.356-.509.788-.778 1.297-.807.306-.019.644.059 1.015.232l.233-1.668c-.177.049-.326.074-.445.081-.179.009-.313-.026-.402-.107-.089-.079-.169-.237-.231-.469.152.095.384.13.687.114.381-.022.742-.116 1.086-.275l-.476 3.408c-.054.38-.074.703-.059.967.02.351.132.521.332.509.197-.011.511-.259.94-.747.432-.491.786-.994 1.061-1.518l.262.146c-.326.69-.745 1.314-1.262 1.871-.514.56-.933.847-1.259.866-.415.026-.641-.294-.678-.959-.018-.274-.009-.568.025-.884zm.114-.823c-.441-.257-.803-.378-1.086-.359-.306.016-.56.222-.762.611-.203.392-.289.843-.258 1.357.024.416.172.615.44.6.29-.017.811-.692 1.562-2.029.014-.027.048-.084.104-.18z"/>
      </g>
      <path fill="url(#O)" d="m17.28 114.966-5.457.318 2.68-4.359 5.459-.321-2.682 4.362z"/>
      <path fill="url(#P)" d="m37.096 113.81-5.458.321 2.682-4.363 5.457-.321-2.681 4.363z"/>
      <path fill="url(#Q)" d="m56.914 112.653-5.458.318 2.682-4.361 5.455-.316-2.679 4.359z"/>
      <path fill="url(#R)" d="m76.73 111.498-5.458.318 2.68-4.362 5.458-.319-2.68 4.363z"/>
      <path fill="url(#S)" d="m96.547 110.341-5.46.319 2.683-4.362 5.457-.318-2.68 4.361z"/>
      <path fill="url(#T)" d="m116.364 109.185-5.458.319 2.681-4.361 5.458-.318-2.681 4.36z"/>
      <path fill="url(#U)" d="m2.944 48.195-.318-5.457 4.364 2.681.317 5.457-4.363-2.681z"/>
      <path fill="url(#V)" d="m4.069 67.454-.319-5.459 4.362 2.683.319 5.456-4.362-2.68z"/>
      <path fill="url(#W)" d="m5.193 86.712-.319-5.457 4.363 2.679.317 5.458-4.361-2.68z"/>
      <path fill="url(#X)" d="m6.316 105.969-.32-5.457 4.364 2.678.318 5.46-4.362-2.681z"/>
      <path fill="url(#Y)" d="m123.525 96.588.318 5.457-4.361-2.679-.318-5.459 4.361 2.681z"/>
      <path fill="url(#Z)" d="m122.442 78.028.318 5.458-4.362-2.681-.319-5.458 4.363 2.681z"/>
      <path fill="url(#aa)" d="m121.235 57.375.322 5.456-4.366-2.681-.316-5.457 4.36 2.682z"/>
      <path fill="url(#ab)" d="m120.152 38.816.321 5.455-4.363-2.679-.32-5.458 4.362 2.682z"/>
      <path fill="url(#ac)" d="m12.58 39.6-5.458.319 2.681-4.363 5.457-.318-2.68 4.362z"/>
      <path fill="url(#ad)" d="m32.397 38.443-5.459.318 2.681-4.36 5.459-.318-2.681 4.36z"/>
      <path fill="url(#ae)" d="m52.215 37.288-5.46.318 2.68-4.362 5.458-.319-2.678 4.363z"/>
      <path fill="url(#af)" d="m72.029 36.131-5.456.318 2.68-4.361 5.458-.319-2.682 4.362z"/>
      <path fill="url(#ag)" d="m91.845 34.976-5.456.318 2.679-4.362 5.459-.319-2.682 4.363z"/>
      <path fill="url(#ah)" d="m111.665 33.819-5.462.318 2.683-4.362 5.457-.317-2.678 4.361z"/>
      <path d="m109.098 39.106-.569.331c-.076.078-.091.08-.091.08-.078-.065-.688-.317-.688-.317l-.566.331c-.081.08-.096.081-.096.081-.072-.066-.685-.316-.685-.316 0 .001-.562.33-.562.33-.082.079-.095.081-.095.082-.079-.068-.682-.317-.682-.317-.003-.001-.57.331-.57.331-.081.08-.094.081-.094.081-.077-.068-.687-.317-.687-.317 0 .001-.564.332-.564.332-.077.077-.092.077-.092.077-.075-.062-.681-.315-.681-.315-.004 0-.572.333-.572.333-.083.078-.094.077-.094.077-.072-.065-.685-.317-.685-.317-.002.001-.564.333-.564.333-.081.078-.094.077-.094.077-.076-.068-.684-.315-.684-.315 0 .001-.566.332-.566.332-.079.076-.093.078-.093.078h-.002c-.076-.068-.686-.316-.686-.316-.001 0-.565.332-.565.332-.077.077-.094.079-.095.078-.075-.064-.686-.315-.686-.315 0 .001-.563.337-.563.337-.093.075-.172.008-.172.007l-.605-.249c0 .001-.567.333-.567.333-.079.076-.093.078-.094.077-.075-.065-.684-.315-.684-.315-.004 0-.566.332-.566.332-.081.079-.094.078-.094.078-.078-.066-.68-.315-.68-.315-.003 0-.574.333-.574.333-.075.079-.269-.039-.271-.04-.007-.002-.307-.168-.307-.168-.202-.114-.451-.146-.62.016-.104.106-.155.223-.147.346.006.067.024.137.063.21l.283.515c.001.002.158.226.158.226l-.079.179c-.005.004-.226.655-.226.655.002 0 .318.613.318.613-.003 0 .101.166.101.166.001.001-.078.18-.078.18-.005.004-.227.655-.227.655 0-.003.312.61.312.61.004.002.109.171.109.171 0-.001-.081.177-.081.177-.004.004-.228.653-.228.653l.313.615c.002.002.11.171.11.171-.003 0-.083.179-.083.179l-.226.653c.003 0 .312.61.312.61.001.001.109.17.109.17-.002 0-.085.18-.085.18 0 .001-.223.649-.223.649 0 .007.314.613.314.613.002.005.106.168.106.168 0 .004-.082.182-.082.182-.002.001-.223.654-.223.654l.315.613.102.163c.001.001-.08.184-.08.184-.002.001-.227.652-.227.652l.323.617c-.005-.004.099.161.099.161 0 .004-.081.183-.081.183-.001 0-.226.65-.226.65-.001.003.319.618.319.618-.005-.002.102.167.102.167l-.079.178-.229.65c0 .005.318.618.318.618 0 .001.103.167.103.167 0 .001-.079.179-.079.179-.004.004-.228.654-.228.654.003.001.312.608.312.608.005.002.11.171.11.171-.001-.001-.08.18-.08.18.001-.004-.226.649-.226.649-.002.003.308.609.308.609.009.007.113.172.113.172l-.08.18c-.006.004-.23.649-.23.649l.311.609c.007.006.112.175.112.175 0-.001-.079.18-.079.18l-.228.654.338.751.137.135c.315.341.479.378.818.358.004-.002.565-.331.565-.331.083-.079.097-.079.097-.079.074.064.683.314.683.314l.569-.33c.079-.079.093-.079.093-.079.073.063.682.317.682.317.011-.001.571-.336.571-.336.081-.077.094-.076.094-.076.075.065.684.315.684.315.004 0 .567-.333.567-.333.079-.079.092-.079.092-.079.08.065.686.316.686.316l.569-.335c.088-.076.167-.008.167-.008-.002-.004.613.248.613.248.002-.007.56-.329.56-.329.084-.081.097-.082.097-.082.075.064.684.316.684.316l.566-.331c.081-.079.095-.079.095-.079.075.067.688.314.688.314-.001-.005.561-.335.561-.335.077-.073.092-.075.093-.074.079.067.689.313.689.313.001-.007.563-.333.563-.333.079-.074.093-.077.093-.077.07.066.683.317.683.317.001-.001.568-.332.568-.332.081-.077.093-.079.093-.079.074.065.689.315.689.315-.001-.002.558-.331.558-.331.077-.078.095-.08.096-.079.082.069.683.314.683.314.002.001.568-.332.568-.332.081-.078.093-.078.093-.078.076.065.683.316.683.316l.569-.336c.078-.076.276.044.273.042l.292.163c.206.116.467.137.632-.03.169-.166.208-.369.093-.573l-.251-.453-.205-.292c-.007-.016.07-.13.07-.13.002-.002.243-.663.243-.663l-.311-.613c-.004-.002-.11-.173-.11-.173-.001.001.085-.178.085-.178l.225-.65c0-.003-.31-.609-.31-.609-.011-.01-.113-.175-.113-.175.002.001.082-.18.082-.18 0-.001.228-.65.228-.65-.001-.004-.317-.618-.317-.618l-.106-.167.082-.182c.003-.001.224-.655.224-.656-.003 0-.315-.609-.315-.609.001 0-.104-.166-.104-.166l.081-.182c.005-.006.227-.648.227-.648 0-.008-.317-.618-.317-.618.002 0-.104-.166-.104-.166.001-.001.081-.182.081-.182.002-.001.226-.652.226-.652l-.313-.609c-.001-.001-.106-.17-.106-.17l.08-.18c.004-.004.227-.653.227-.653-.003 0-.317-.612-.317-.612l-.103-.167c0-.001.078-.179.078-.179.004-.001.228-.655.228-.655-.001 0-.306-.604-.306-.604-.009-.01-.115-.177-.115-.177.003 0 .081-.179.081-.179l.227-.647c-.001-.008-.313-.619-.313-.619-.002-.001-.105-.168-.105-.168l.08-.181c-.002.002.223-.654.223-.654.001.004-.311-.609-.311-.609-.001-.001-.107-.167-.107-.167l.083-.181c-.002 0 .224-.65.224-.65-.002-.007-.316-.614-.316-.614l-.104-.165c0-.005.077-.183.077-.183l.228-.654c-.003 0-.312-.608-.312-.608-.003-.003-.107-.171-.107-.171.001-.001.079-.18.079-.18.001-.003.227-.654.227-.654l-.336-.751c.004.003-.138-.136-.138-.136-.321-.329-.486-.369-.821-.346z" opacity=".2"/>
      <path fill="url(#ai)" d="M468.083 121.27c-.087.108-.205.254-.454.272-.247.018-.384-.112-.484-.207-.088-.083-.128-.115-.213-.11-.083.008-.12.046-.196.139-.086.107-.204.255-.451.272-.246.018-.385-.111-.484-.205-.091-.083-.126-.116-.214-.11-.085.007-.12.045-.195.137-.085.108-.204.256-.449.273-.249.018-.39-.112-.49-.207-.087-.082-.125-.115-.209-.11-.089.006-.121.045-.198.138-.087.107-.204.255-.453.271-.246.019-.384-.111-.486-.206-.085-.083-.126-.116-.209-.108-.085.005-.119.043-.192.136-.09.107-.208.254-.456.274-.246.016-.384-.113-.483-.208-.087-.081-.126-.114-.213-.108-.087.005-.12.043-.195.137-.088.107-.203.256-.451.273-.246.019-.387-.113-.486-.207-.089-.082-.127-.115-.21-.11-.087.008-.122.045-.196.139-.086.107-.206.255-.452.272-.248.017-.387-.113-.486-.208-.086-.082-.127-.114-.212-.108-.084.006-.119.043-.193.138-.09.107-.205.254-.454.272-.248.017-.383-.113-.484-.208-.088-.082-.129-.114-.214-.109-.083.006-.117.044-.191.137-.087.108-.207.255-.452.272-.248.018-.387-.112-.487-.205-.089-.084-.125-.117-.214-.111-.083.008-.119.044-.191.138-.086.108-.206.256-.453.272-.246.018-.387-.111-.486-.206-.086-.083-.127-.116-.21-.109-.086.006-.122.044-.196.137-.085.108-.203.255-.453.272-.248.018-.384-.112-.485-.207-.087-.082-.127-.115-.212-.109-.082.006-.117.044-.193.138-.088.106-.205.254-.453.271-.246.017-.387-.111-.484-.206-.09-.082-.126-.114-.211-.109-.086.006-.122.044-.197.138-.085.107-.202.254-.451.272-.213.015-.392-.11-.536-.212-.054-.036-.125-.086-.161-.099-.012.015-.021.027-.021.044.006.03.036.076.142.187.126.135.281.303.298.547.02.271-.102.427-.189.541-.076.101-.125.161-.115.294.01.132.065.185.155.272.103.1.246.238.263.509.021.273-.101.426-.19.542-.077.099-.122.158-.111.291.008.133.062.186.151.273.104.1.246.238.268.508.018.272-.104.428-.19.542-.08.1-.125.159-.116.291.009.131.063.186.153.273.105.1.245.237.267.511.014.269-.104.426-.189.54-.08.1-.125.159-.116.292.008.132.062.185.15.272.109.102.248.238.27.51.018.27-.105.427-.191.541-.079.098-.126.16-.116.292.01.131.062.184.154.272.104.101.247.237.263.509.022.271-.1.428-.188.542-.076.098-.123.159-.115.29.011.131.063.184.157.271.102.1.244.238.262.51.019.27-.104.426-.188.542-.079.098-.126.159-.117.29.011.131.064.186.159.273.102.099.244.238.26.508.021.272-.101.427-.188.541-.077.1-.126.161-.116.292.009.131.064.184.157.272.102.1.245.238.262.51.021.271-.104.427-.19.541-.077.101-.124.16-.115.291.01.133.064.184.157.273.103.1.245.237.263.509s-.104.428-.191.541c-.076.1-.124.161-.114.292.009.132.063.185.154.273.104.099.248.238.267.509.016.271-.104.426-.193.541-.076.099-.123.158-.112.292.009.13.064.183.153.271.104.102.247.237.267.51.016.271-.105.428-.193.541-.074.101-.123.159-.115.29.008.133.068.186.156.275.104.1.244.237.265.507.017.271-.105.426-.189.541-.078.098-.128.159-.117.291.019.261.027.27.181.417l.139.138.085.087c.122.132.122.132.328.117.086-.006.119-.043.195-.136.086-.11.206-.256.455-.273.244-.016.384.113.483.208.087.082.127.115.216.108.083-.007.119-.044.192-.138.086-.106.205-.254.451-.275.25-.016.388.115.487.209.085.083.126.113.21.109.088-.006.122-.045.198-.138.086-.108.204-.257.451-.273.249-.016.387.111.486.207.089.084.127.115.213.108.084-.005.118-.043.192-.136.088-.109.207-.255.454-.274.248-.018.383.111.488.208.087.081.127.114.21.108.084-.008.119-.044.193-.137.086-.106.206-.255.453-.272.248-.018.386.112.485.205.089.084.128.116.214.108.083-.005.119-.043.195-.134.084-.108.202-.256.451-.272.245-.018.386.111.484.206.088.083.123.118.211.111.089-.008.12-.045.196-.139.086-.108.204-.255.449-.271.252-.018.39.111.488.206.088.082.127.116.211.108.085-.004.121-.043.195-.138.088-.108.206-.255.453-.271.246-.019.385.109.487.207.084.08.124.115.21.107.085-.005.12-.043.195-.137.085-.107.202-.254.451-.271.247-.02.387.111.486.206.086.083.128.116.212.11.085-.006.116-.044.195-.138.088-.108.204-.254.452-.271.246-.02.387.111.485.204.088.084.127.118.21.11.085-.007.122-.045.196-.136.087-.108.206-.256.452-.274.248-.018.384.113.487.208.088.079.126.114.213.109.083-.007.116-.046.189-.139.088-.106.206-.256.454-.272.246-.019.386.112.485.207.088.083.128.114.215.108.083-.005.117-.044.191-.138.088-.107.205-.255.453-.273.215-.015.393.111.536.213.052.035.123.085.159.095.018-.02.032-.041.031-.057-.002-.028-.033-.062-.105-.139-.1-.107-.241-.25-.321-.483-.022-.058-.032-.11-.036-.161-.015-.206.097-.353.186-.466.094-.116.144-.189.135-.303-.007-.133-.062-.186-.153-.273-.105-.101-.247-.238-.268-.51-.018-.271.105-.427.193-.543.076-.097.123-.157.113-.29-.008-.13-.062-.184-.153-.271-.104-.101-.247-.238-.266-.509s.103-.427.191-.541c.076-.099.124-.161.116-.292-.011-.131-.065-.183-.159-.272-.1-.099-.245-.237-.263-.509-.019-.272.103-.426.191-.541.076-.1.124-.159.113-.292-.009-.13-.062-.185-.156-.273-.101-.099-.243-.238-.261-.507-.021-.273.103-.429.187-.542.078-.101.126-.159.119-.291-.011-.131-.063-.185-.157-.274-.103-.099-.247-.237-.261-.507-.022-.272.103-.428.188-.542.076-.1.124-.159.115-.29-.012-.132-.064-.186-.154-.274-.105-.099-.247-.236-.266-.508-.018-.272.104-.428.191-.541.075-.101.124-.16.115-.291-.01-.133-.065-.186-.157-.275-.104-.098-.246-.237-.265-.507-.018-.272.104-.428.192-.541.078-.1.123-.16.113-.291-.007-.131-.065-.185-.152-.274-.105-.1-.246-.237-.268-.508-.017-.271.104-.428.193-.54.076-.099.122-.16.115-.292-.01-.131-.065-.185-.157-.272-.103-.1-.244-.238-.265-.508-.017-.271.105-.427.19-.542.077-.099.126-.16.117-.292-.009-.13-.066-.184-.155-.271-.104-.101-.248-.238-.267-.509-.018-.272.104-.428.192-.543.078-.097.126-.158.114-.29-.008-.132-.063-.185-.154-.271-.104-.101-.249-.238-.265-.508-.021-.271.102-.428.19-.542.079-.098.125-.159.116-.291-.008-.132-.066-.184-.155-.271-.103-.1-.246-.238-.265-.51-.021-.271.101-.425.19-.54.077-.099.125-.159.114-.292-.018-.258-.026-.268-.181-.414l-.14-.14-.08-.085c-.126-.133-.126-.133-.332-.119-.09.003-.123.039-.198.134z" transform="translate(-359.1431 -81.50215)"/>
      <path fill="url(#aj)" d="M93.598 42.549c.196 2.772 1.086 15.378 1.279 18.153 2.617-.186 11.908-.841 14.523-1.025-.197-2.773-1.083-15.377-1.281-18.151-2.612.183-11.907.839-14.521 1.023z"/>
      <path fill="url(#ak)" d="M93.598 42.549c.196 2.772 1.086 15.378 1.279 18.153 2.617-.186 11.908-.841 14.523-1.025-.197-2.773-1.083-15.377-1.281-18.151-2.612.183-11.907.839-14.521 1.023z"/>
      <path fill="#fff" d="m97.783 60.497 1.452-.105c-.361-5.104 3.502-9.55 8.606-9.909.305-.021.609-.028.908-.019l-.103-1.457c-.303-.003-.607 0-.909.023-5.905.417-10.371 5.56-9.954 11.467zm3.629-.257 1.452-.102c-.22-3.104 2.13-5.806 5.23-6.025.311-.021.614-.018.915.011l-.103-1.467c-.305-.018-.606-.018-.915.004-3.903.277-6.852 3.675-6.579 7.579zm3.63-.255 1.454-.102c-.078-1.103.754-2.062 1.855-2.139.327-.023.641.036.923.155l-.109-1.546c-.295-.059-.602-.081-.917-.062-1.901.136-3.339 1.792-3.206 3.694zm-10.48-3.782.315 4.499.726-.052c-.498-7.107 4.875-13.295 11.98-13.797.304-.022.609-.028.908-.028l-.102-1.456c-.3.003-.606.01-.907.032-6.337.447-11.431 4.959-12.92 10.802zm.956-13.79c-.637.478-1.24.99-1.822 1.53l.135 1.917c1.354-1.429 2.918-2.666 4.642-3.655zm11.71-.642c-5.437.383-10.146 3.155-13.175 7.214l.167 2.372c2.678-4.539 7.464-7.735 13.11-8.133.304-.022.606-.036.904-.039l-.098-1.455c-.304.006-.607.019-.908.041z" opacity=".15"/>
      <path fill="#fff" d="m106.560403 60.82477024-.2498728-3.50720734-5.31024629.37391036-.08448936-1.12712404 4.52287734-8.59634317 1.67001313-.11684699.56985378 8.02109645 1.59271436-.1132517.10246582 1.3482345-1.60709552.11145406.2498728 3.50720734zm-.34694569-4.85184655-.30020688-4.31614805c-.04494115-.6759149-.07729878-1.35003214-.0898823-2.02235175l-.05213173.00179765c-.29840924.77658307-.54468674 1.35362744-.81073835 1.98819647l-2.4897397 4.57321143.00359528.04134586z"/>
      <g opacity=".5" transform="translate(-359.1431 -81.50215)">
        <path fill="url(#al)" d="M448.989 126.16c-5.491.319-9.695 5.046-9.374 10.536.322 5.488 5.047 9.694 10.534 9.373 5.489-.319 9.694-5.047 9.373-10.536-.318-5.488-5.044-9.692-10.533-9.373zm.06 1.047c4.91-.286 9.14 3.478 9.426 8.386.287 4.912-3.477 9.141-8.387 9.427-4.912.287-9.141-3.477-9.425-8.386-.287-4.909 3.473-9.139 8.386-9.427z" opacity=".5"/>
        <path fill="url(#am)" d="M439.416 139.631c-1.89.111-2.85.766-3.695 1.342-.807.551-1.567 1.069-3.166 1.163-1.603.092-2.418-.334-3.283-.786-.908-.477-1.938-1.013-3.83-.903l.062 1.046c1.603-.093 2.42.333 3.282.785.909.476 1.939 1.016 3.828.905 1.894-.111 2.851-.766 3.696-1.343.806-.548 1.565-1.067 3.17-1.161 1.599-.093 2.413.334 3.277.786.854.448 1.825.942 3.51.909 1.106.586 2.379.894 3.714.815 3.901-.227 6.892-3.586 6.663-7.486s-3.587-6.888-7.487-6.661c-2.087.122-3.907 1.146-5.121 2.663-.499-.151-.918-.354-1.341-.575-.908-.476-1.938-1.014-3.827-.905-1.891.111-2.851.766-3.697 1.343-.806.549-1.566 1.068-3.168 1.161-1.599.094-2.415-.334-3.278-.786-.91-.474-1.938-1.013-3.831-.902l.062 1.048c1.603-.094 2.42.333 3.283.784.904.476 1.938 1.013 3.827.903 1.894-.111 2.85-.766 3.698-1.341.806-.55 1.566-1.068 3.165-1.16 1.602-.095 2.416.333 3.282.785.364.191.755.386 1.21.548-.281.498-.506 1.034-.664 1.594-.88-.458-1.897-.946-3.707-.838-1.889.11-2.849.764-3.695 1.341-.806.549-1.564 1.067-3.166 1.161-1.603.093-2.417-.334-3.281-.786-.908-.474-1.938-1.014-3.83-.903l.062 1.048c1.602-.093 2.418.334 3.28.786.909.475 1.938 1.013 3.829.903 1.893-.111 2.851-.766 3.697-1.342.805-.549 1.566-1.069 3.167-1.162s2.415.333 3.281.785c.048.025.099.051.15.077-.054.412-.072.83-.046 1.256.013.21.037.416.069.62-.805-.392-1.771-.743-3.331-.652-1.89.111-2.85.765-3.695 1.342-.807.55-1.566 1.068-3.168 1.162s-2.417-.333-3.28-.785c-.912-.474-1.937-1.013-3.829-.902l.061 1.048c1.603-.095 2.417.332 3.281.785.906.474 1.938 1.013 3.827.901 1.894-.11 2.852-.766 3.698-1.341.806-.55 1.565-1.068 3.167-1.163 1.603-.091 2.416.335 3.281.785.102.054.219.105.324.161.356 1.004.935 1.896 1.667 2.628-.492-.149-.904-.363-1.322-.582-.912-.476-1.942-1.015-3.832-.904zm4.134-3.898c.021-.363.071-.722.16-1.067.157-.64.423-1.238.768-1.78.224-.35.481-.675.771-.971 1.015-1.046 2.402-1.734 3.968-1.826 3.322-.194 6.184 2.352 6.376 5.674.195 3.322-2.354 6.184-5.673 6.377-2.387.14-4.529-1.138-5.62-3.096-.11-.195-.21-.399-.295-.604-.006-.013-.012-.026-.018-.04-.088-.211-.168-.43-.227-.653-.113-.41-.191-.836-.219-1.279-.011-.249-.007-.493.009-.735z" opacity=".5"/>
      </g>
    </g>
    <g transform="matrix(1.05254 .0799 -.0799 1.05254 .535004 1.58294)">
      <rect width="12.103193" height="49.698818" x="-.787873" y="79.972206" fill="url(#an)" rx="1.375042" transform="rotate(-45.152)"/>
      <rect width="11.062274" height="45.424538" x="-.177266" y="10.523036" fill="url(#ao)" rx="1.375042" transform="rotate(-45.152)"/>
      <rect width="12.103193" height="49.698818" x="-.787873" y="79.972206" fill="url(#ap)" rx="1.375042" transform="rotate(-45.152)"/>
      <path fill="url(#aq)" d="M-1.276392 17.895601h13.260527v99.661789H-1.276392z" transform="rotate(-45.152)"/>
      <path fill="url(#ar)" d="M.11819 11.779693h10.664928v6.118645H.11819z" transform="rotate(-45.152)"/>
      <rect width="11.062274" height="2.477585" x="-.177266" y="10.523036" fill="url(#as)" rx="1.375042" transform="rotate(-45.152)"/>
      <path fill="url(#at)" d="M-1.276392 17.895601h13.260527v1.376978H-1.276392z" opacity=".258197" transform="rotate(-45.152)"/>
      <path fill="url(#au)" d="M-1.276392 17.895601h13.260527v100.12515H-1.276392z" transform="rotate(-45.152)"/>
      <path fill="url(#av)" d="M-1.276392 17.895601h13.260527v96.649818H-1.276392z" transform="rotate(-45.152)"/>
      <path fill="url(#aw)" d="M-12.398723 24.83498h3.65497v49.13446h-3.65497z" transform="matrix(-.60364 .79726 .7172 .69687 0 0)"/>
      <path fill="url(#ax)" d="M24.155634-10.545126h4.900393v1.255472h-4.900393z" opacity=".778689" transform="rotate(44.848)"/>
      <g transform="matrix(-.71555 -.1897 -.1897 .71555 69.01171 -121.4823)">
        <path fill="url(#ay)" d="m13.86477 181.00757-59.383233 34.28493.018859.03267-.228649.132c-.012627.00729-.046989.02744-.065328.03772-.008334.00492-.026665.0148-.032664.01886-.011175.00669-.051251.03041-.065329.03772-.004189.00243-.029061.01648-.032663.01885-.021938.0225-.061282.07155-.079134.08925-.006643.00689-.02615.01179-.032664.01886-.146922.16643-.277948.41181-.334039.62837-.013352.05661-.017321.13077-.022558.18724.000904.0146.003948.06957.005054.08418.001226.02192.004491.07005.005052.08419.001187.0188.003007.06545.005054.08418.000659.01464.004176.06958.005053.08419.005704.02772.016185.08954.023912.11685.006579.01116.030907.05423.037717.06534l1.135578 2.87208c.005419.01832.000738.06404.005053.08418.001437.00673.017288.02611.018859.03268.001841.0062.016622.02697.018858.03266.003438.00583.014346.02654.018859.03266.021194.02522.066619.0556.089239.07914.00504.00549.014708.02767.018859.03266.006271.01156.031306.05396.037717.06533.012356.0081.057901.03856.070381.04647.001556.0029.017321.02923.018859.03266.013432.0098.056498.03748.070382.04646.009204.00236.042291.01152.051522.01381.018134.00969.049243.03559.070381.04647.005203.0024.046479.01168.051522.01381.007779.00262.043674.01141.051524.0138.00792.00219.043532.01184.051522.01381.008057.00174.043409.01228.051522.01381.009146.00253.042368.01132.051524.01381.014175-.0008.069913-.00376.084186-.00506.016891-.0001.067172-.00403.084187-.00506.012795-.00111.062103-.00363.084186-.00504.041516-.00931.111847-.03124.149516-.04278.007357-.00021.043144.01365.051522.01381l.130656-.07543c.008458-.00461.024239-.014.032663-.01887l.914595-.52804 59.157511-33.90775zm-51.149814 32.10094c.002514.00489-.01622.04577-.013807.05152.006969.01888.031462.04735.037718.06532.013877.03481.034796.11213.04277.14952.011353.07163.023544.17285.01516.25257-.10988.76874-1.083251 1.88841-2.42553 2.66338-1.342286.77498-2.658221.97703-3.22535.59915-.056923-.04202-.139146-.10279-.178479-.15827-.017108-.03458-.030625-.11907-.042771-.14952-.022111-.08194-.037004-.20105-.034018-.28521.060523-.7686 1.025144-1.89844 2.406671-2.69606 1.295178-.74777 2.593694-.98615 3.187633-.66448.028578.01703.064105.05926.08924.07914.015235.01171.054061.03484.070381.04647.00521.00402.014038.02841.018858.03266.001951.00237.049778.01135.051524.01381z"/>
        <path fill="url(#az)" d="m-45.714448 215.40565.195985-.11315.018859.03267-.228649.132c-.012627.00729-.046989.02744-.065328.03772-.008334.00492-.026665.0148-.032664.01886-.011175.00669-.051251.03041-.065329.03772-.004189.00243-.029061.01648-.032663.01885-.021938.0225-.061282.07155-.079134.08925-.006643.00689-.02615.01179-.032664.01886-.146922.16643-.277948.41181-.334039.62837-.013352.05661-.017321.13077-.022558.18724.000904.0146.003948.06957.005054.08418.001226.02192.004491.07005.005052.08419.001187.0188.003007.06545.005054.08418.000659.01464.004176.06958.005053.08419.005704.02772.016185.08954.023912.11685.006579.01116.030907.05423.037717.06534l1.135578 2.87208c.005419.01832.000738.06404.005053.08418.001437.00673.017288.02611.018859.03268.001841.0062.016622.02697.018858.03266.003438.00583.014346.02654.018859.03266.021194.02522.066619.0556.089239.07914.00504.00549.014708.02767.018859.03266.006271.01156.031306.05396.037717.06533.012356.0081.057901.03856.070381.04647.001556.0029.017321.02923.018859.03266.013432.0098.056498.03748.070382.04646.009204.00236.042291.01152.051522.01381.018134.00969.049243.03559.070381.04647.005203.0024.046479.01168.051522.01381.007779.00262.043674.01141.051524.0138.00792.00219.043532.01184.051522.01381.008057.00174.043409.01228.051522.01381.009146.00253.042368.01132.051524.01381.014175-.0008.069913-.00376.084186-.00506.016891-.0001.067172-.00403.084187-.00506.012795-.00111.062103-.00363.084186-.00504.041516-.00931.111847-.03124.149516-.04278.007357-.00021.043144.01365.051522.01381l.130656-.07543c.008458-.00461.024239-.014.032663-.01887l.914595-.52804-.849266.49032z"/>
      </g>
      <path fill="url(#aA)" d="M-151.10156 289.98047c0 .34949-.28332.63281-.63281.63281-.3495 0-.63282-.28332-.63282-.63281s.28332-.63281.63282-.63281c.34949 0 .63281.28332.63281.63281z" transform="matrix(-.20764 -.7668 .7668 -.20764 -141.3607 48.52991)"/>
      <path fill="url(#aB)" d="M-151.10156 289.98047c0 .34949-.28332.63281-.63281.63281-.3495 0-.63282-.28332-.63282-.63281s.28332-.63281.63282-.63281c.34949 0 .63281.28332.63281.63281z" transform="matrix(-.20764 -.7668 .7668 -.20764 -141.3607 48.52991)"/>
      <g transform="matrix(-.05629 -.20786 .20786 -.05629 45.01463 90.70937)">
        <rect width="16.349716" height="67.136131" x="167.04588" y="178.54808" fill="url(#aC)" rx="1.857488" transform="rotate(60)"/>
        <path fill="url(#aD)" d="M-145.78378 283.42273c7.18787-6.73098 16.93023-15.78768 17.8526-16.64993.00045.00027 8.04938 14.14685 8.04584 14.14787-1.20744.35151-13.85785 4.04997-23.36242 6.81889z"/>
        <path fill="url(#aE)" d="M-145.78378 283.42273c7.18787-6.73098 16.93023-15.78768 17.8526-16.64993.00045.00027 4.11515 11.29005 4.11161 11.29107-1.20744.35151-9.92362 6.90677-19.42819 9.67569z"/>
        <path fill="url(#aF)" d="M-143.23729 287.75259c9.42314-2.85939 20.56522-8.00072 20.08238-9.16739l-4.9471-11.95352-17.68289 16.7972z"/>
      </g>
      <path fill="url(#aG)" d="M105.95037 100.74381c-6.200322-3.833582-14.556713-9.042422-15.351293-9.534648.000104-.000377 8.550908-8.48887 8.552328-8.48654.484798.79474 5.575235 9.11827 9.392785 15.373839z"/>
      <path fill="url(#aH)" d="m108.55106 98.139811-9.421601-15.315884-8.625372 8.437306 15.413433 9.486417z" opacity=".72541"/>
      <path fill="url(#aI)" d="M105.92843 100.73137c-6.200322-3.83358-14.55671-9.04242-15.351289-9.534646.000103-.000377 8.550904-8.488879 8.552324-8.486551.484799.794747 5.575235 9.118281 9.392785 15.373851z"/>
      <path fill="url(#aJ)" d="M108.66214 98.044818 99.240541 82.72894l-8.625372 8.4373 15.413431 9.48642z" opacity=".72541"/>
      <path fill="url(#aK)" d="m108.57849 97.854281-9.447364-15.051166-8.501558 8.376688 15.342472 9.520437z" opacity=".72541"/>
      <path fill="url(#aL)" d="m91.302155 75.127993-5.091594 9.337302 4.281299 6.681319 8.4122-8.456995z" opacity=".778689"/>
      <path fill="url(#aM)" d="M92.221355 87.85659c0 12.58331-25.866286 22.7841-57.773967 22.7841-31.9076816 0-57.773968-10.20079-57.773968-22.7841S2.5397064 65.072491 34.447388 65.072491c31.907681 0 57.773967 10.200789 57.773967 22.784099z" opacity=".217213" transform="matrix(.92344 .28333 -.08389 .3663 43.56221 48.61163)"/>
    </g>
  </g>
</svg>